# xmcd CD database file
#
# Track frame offsets:
#	150
#	14797
#	28942
#	53497
#	80552
#	92917
#	114492
#	131882
#	142960
#	158430
#	174647
#	194862
#	216957
#	234585
#
# Disc length: 3460 seconds
#
# Revision: 0
# Processed by: cddbd v1.5.1PL0 Copyright (c) Steve Scherf et al.
# Submitted via: CDex 1.51
#
DISCID=ca0d820e
DTITLE=The Royal Philharmonic Orchestra - The Royal Philharmonic Orchestra Plays QUEEN
DYEAR=1997
DGENRE=Classic Rock
TTITLE0=WE WILL ROCK YOU
TTITLE1=WE ARE THE CHAMPIONS
TTITLE2=RADIO GAGA
TTITLE3=BOHEMIAN RHAPSODIE
TTITLE4=FLASH
TTITLE5=I WANT IT ALL
TTITLE6=I WANT TO BREAK FREE
TTITLE7=ANOTHER ONE BITES THE DUST
TTITLE8=KILLER QUEEN
TTITLE9=THE GREAT PRETENDER
TTITLE10=A KIND OF MAGIC
TTITLE11=INNUENDO
TTITLE12=SAVE ME
TTITLE13=BARCELONA
EXTD=YEAR: 1997
EXTT0=
EXTT1=
EXTT2=
EXTT3=
EXTT4=
EXTT5=
EXTT6=
EXTT7=
EXTT8=
EXTT9=
EXTT10=
EXTT11=
EXTT12=
EXTT13=
PLAYORDER=
